<svg id="Группа_1_копия" data-name="Группа 1 копия" xmlns="http://www.w3.org/2000/svg" width="180.062" height="180" viewBox="0 0 180.062 180">
  <defs>
    <style>
      .cls-1 {
        fill: #875eff;
      }

      .cls-1, .cls-2 {
        fill-rule: evenodd;
      }

      .cls-2 {
        fill: #fff;
        stroke: #875eff;
        stroke-linejoin: round;
        stroke-width: 5px;
      }
    </style>
  </defs>
  <path id="Прямоугольник_скругл._углы_1" data-name="Прямоугольник, скругл. углы 1" class="cls-1" d="M887.2,174H1017.24a25,25,0,0,1,25,25V329a25,25,0,0,1-25,25H887.2a25,25,0,0,1-25-25V199A25,25,0,0,1,887.2,174Z" transform="translate(-862.188 -174)"/>
  <path id="B" class="cls-2" d="M1017.57,202q-11.97-12.075-31.924-12.077H930.2L904.364,336.939h59.649q25.41,0,39.907-11.551t17.01-30.454q2.94-21.629-11.97-33.393,14.7-10.288,17.64-28.563Q1029.54,214.075,1017.57,202ZM990.9,225.207a11,11,0,0,1,1.89,9.241,15.159,15.159,0,0,1-5.461,9.451,16.47,16.47,0,0,1-10.711,3.57H953.721l4.621-26.042h22.893Q987.955,221.427,990.9,225.207Zm-20.373,80.228H943.43l5.041-28.143h27.094q6.93,0,10.186,3.886t2.205,10.186a16.175,16.175,0,0,1-5.775,10.186,17.741,17.741,0,0,1-11.657,3.885h0Z" transform="translate(-862.188 -174)"/>
  <path id="L" class="cls-2" d="M940.668,190.423H907.063L886.9,305.1l-5.671,32.344h86.113l5.67-32.344H920.505Z" transform="translate(-862.188 -174)"/>
</svg>
